<?xml version="1.0" standalone="no"?>
<!DOCTYPE svg PUBLIC "-//W3C//DTD SVG 20010904//EN"
 "http://www.w3.org/TR/2001/REC-SVG-20010904/DTD/svg10.dtd">
<svg version="1.0" xmlns="http://www.w3.org/2000/svg"
 width="379.000000pt" height="379.000000pt" viewBox="0 0 379.000000 379.000000"
 preserveAspectRatio="xMidYMid meet">
<metadata>
Created by potrace 1.11, written by Peter Selinger 2001-2013
</metadata>
<g transform="translate(0.000000,379.000000) scale(0.100000,-0.100000)"
fill="#000000" stroke="none">
<path d="M710 1995 l0 -1455 365 0 365 0 0 491 0 490 67 95 c37 51 70 94 74
94 4 0 183 -263 399 -585 l392 -585 445 0 445 0 -35 48 c-19 26 -262 376 -541
779 l-506 732 472 613 c259 337 493 641 520 676 l50 62 -424 0 -424 0 -464
-645 -465 -645 -3 645 -2 645 -365 0 -365 0 0 -1455z"/>
</g>
</svg>
